<svg width="774" height="291" viewBox="0 0 774 291" fill="none" xmlns="http://www.w3.org/2000/svg">
<path d="M44.2833 11.3235C28.4756 14.787 13.101 26.693 6.49642 40.5472C-0.108163 54.4014 0.000109118 53.319 0.000109118 142.289C0.108381 214.915 0.324925 224.224 1.949 230.826C7.47087 252.69 23.7116 268.817 44.6081 273.254C55.6519 275.636 213.079 275.527 224.123 273.254C244.586 268.925 259.636 255.937 267.215 236.13C269.597 230.068 269.597 229.094 269.922 145.536C270.138 85.7898 269.922 59.1638 269.056 54.6178C265.374 35.5683 251.407 19.5494 232.243 12.7305L225.206 10.2411L138.047 10.0246C68.5362 9.91638 49.5886 10.1329 44.2833 11.3235ZM101.018 75.2909C109.571 80.378 113.469 88.9286 119.099 114.689C125.595 145.103 127.436 151.056 130.576 152.03C135.773 153.654 139.129 149 156.128 117.07C170.203 90.6604 171.286 88.9286 177.458 82.4345C191.858 67.1732 213.621 68.472 219.9 85.0322C222.607 92.0675 221.416 107.978 216.003 137.418C209.181 174.435 209.831 184.501 219.251 189.588C224.231 192.186 232.785 192.186 237.982 189.48C243.07 186.882 243.07 188.181 238.198 196.515C231.594 207.663 223.473 213.4 211.672 215.24C198.462 217.405 186.769 213.4 181.897 205.174C176.05 195.108 176.05 184.068 182.005 147.917C185.037 129.084 184.928 130.924 183.088 130.924C180.598 130.924 177.241 136.12 164.573 159.607C143.136 199.438 136.856 206.689 123.863 206.689C108.272 206.689 103.4 200.087 96.7952 169.997C95.0628 161.88 92.5726 150.19 91.165 143.913C88.9996 133.955 88.4582 132.548 86.4011 132.223C82.8281 131.682 81.204 135.903 76.2235 157.658C71.1347 180.063 67.67 190.887 63.2309 198.788C52.1872 218.162 29.5583 221.842 21.4379 205.607C18.0815 199.113 18.2981 197.273 22.0876 196.407C27.0681 195.325 33.6727 190.021 36.8125 184.501C41.1434 177.249 43.9585 168.049 53.0533 131.79C57.6007 113.715 62.2564 95.964 63.4474 92.284C67.0204 81.2439 72.434 75.3991 81.7454 72.3685C86.2928 70.8532 95.929 72.3685 101.018 75.2909Z" fill="#C12122"/>
<path d="M365.543 0.833061C359.77 2.65639 351.362 11.9757 345.791 22.8144C338.396 37.2998 328.266 54.4189 325.329 57.4578C323.809 58.9773 320.77 61.2058 318.542 62.32L314.389 64.4473L319.453 63.8395C333.027 62.1174 341.435 56.9513 350.248 44.7957C355.009 38.3128 359.668 33.957 361.897 33.957C362.201 33.957 364.125 37.1985 366.151 41.2504C372.634 54.0137 376.078 57.2552 383.372 57.2552C386.41 57.2552 386.917 56.9513 386.309 55.4319C386.005 54.5202 385.195 46.2139 384.688 36.9959C383.27 10.9627 382.359 6.20177 378.003 2.25121C375.369 -0.0786057 370.102 -0.686386 365.543 0.833061Z" fill="#C12122"/>
<path d="M324.07 144.04C316.097 144.04 309.077 142.48 303.01 139.36C297.03 136.24 292.393 131.993 289.1 126.62C285.807 121.16 284.16 114.963 284.16 108.03C284.16 101.01 285.763 94.8133 288.97 89.44C292.263 83.98 296.727 79.7333 302.36 76.7C307.993 73.58 314.363 72.02 321.47 72.02C328.317 72.02 334.47 73.4933 339.93 76.44C345.477 79.3 349.853 83.46 353.06 88.92C356.267 94.2933 357.87 100.75 357.87 108.29C357.87 109.07 357.827 109.98 357.74 111.02C357.653 111.973 357.567 112.883 357.48 113.75H300.67V101.92H346.82L339.02 105.43C339.02 101.79 338.283 98.6267 336.81 95.94C335.337 93.2533 333.3 91.1733 330.7 89.7C328.1 88.14 325.067 87.36 321.6 87.36C318.133 87.36 315.057 88.14 312.37 89.7C309.77 91.1733 307.733 93.2967 306.26 96.07C304.787 98.7567 304.05 101.963 304.05 105.69V108.81C304.05 112.623 304.873 116.003 306.52 118.95C308.253 121.81 310.637 124.02 313.67 125.58C316.79 127.053 320.43 127.79 324.59 127.79C328.317 127.79 331.567 127.227 334.34 126.1C337.2 124.973 339.8 123.283 342.14 121.03L352.93 132.73C349.723 136.37 345.693 139.187 340.84 141.18C335.987 143.087 330.397 144.04 324.07 144.04ZM397.502 144.04C390.915 144.04 384.978 142.567 379.692 139.62C374.405 136.587 370.202 132.383 367.082 127.01C364.048 121.637 362.532 115.31 362.532 108.03C362.532 100.663 364.048 94.2933 367.082 88.92C370.202 83.5467 374.405 79.3867 379.692 76.44C384.978 73.4933 390.915 72.02 397.502 72.02C403.395 72.02 408.552 73.32 412.972 75.92C417.392 78.52 420.815 82.4633 423.242 87.75C425.668 93.0367 426.882 99.7967 426.882 108.03C426.882 116.177 425.712 122.937 423.372 128.31C421.032 133.597 417.652 137.54 413.232 140.14C408.898 142.74 403.655 144.04 397.502 144.04ZM401.012 127.4C404.305 127.4 407.295 126.62 409.982 125.06C412.668 123.5 414.792 121.29 416.352 118.43C417.998 115.483 418.822 112.017 418.822 108.03C418.822 103.957 417.998 100.49 416.352 97.63C414.792 94.77 412.668 92.56 409.982 91C407.295 89.44 404.305 88.66 401.012 88.66C397.632 88.66 394.598 89.44 391.912 91C389.225 92.56 387.058 94.77 385.412 97.63C383.852 100.49 383.072 103.957 383.072 108.03C383.072 112.017 383.852 115.483 385.412 118.43C387.058 121.29 389.225 123.5 391.912 125.06C394.598 126.62 397.632 127.4 401.012 127.4ZM419.342 143V128.7L419.732 107.9L418.432 87.23V46.54H438.712V143H419.342ZM453.581 143V73.06H473.861V143H453.581ZM463.721 63.31C459.995 63.31 456.961 62.2267 454.621 60.06C452.281 57.8933 451.111 55.2067 451.111 52C451.111 48.7933 452.281 46.1067 454.621 43.94C456.961 41.7733 459.995 40.69 463.721 40.69C467.448 40.69 470.481 41.73 472.821 43.81C475.161 45.8033 476.331 48.4033 476.331 51.61C476.331 54.99 475.161 57.8067 472.821 60.06C470.568 62.2267 467.535 63.31 463.721 63.31ZM531.683 143V129.35L530.383 126.36V101.92C530.383 97.5867 529.04 94.2067 526.353 91.78C523.753 89.3533 519.723 88.14 514.263 88.14C510.536 88.14 506.853 88.7467 503.213 89.96C499.66 91.0867 496.626 92.6467 494.113 94.64L486.833 80.47C490.646 77.7833 495.24 75.7033 500.613 74.23C505.986 72.7567 511.446 72.02 516.993 72.02C527.653 72.02 535.93 74.5333 541.823 79.56C547.716 84.5867 550.663 92.43 550.663 103.09V143H531.683ZM510.363 144.04C504.903 144.04 500.223 143.13 496.323 141.31C492.423 139.403 489.433 136.847 487.353 133.64C485.273 130.433 484.233 126.837 484.233 122.85C484.233 118.69 485.23 115.05 487.223 111.93C489.303 108.81 492.553 106.383 496.973 104.65C501.393 102.83 507.156 101.92 514.263 101.92H532.853V113.75H516.473C511.706 113.75 508.413 114.53 506.593 116.09C504.86 117.65 503.993 119.6 503.993 121.94C503.993 124.54 504.99 126.62 506.983 128.18C509.063 129.653 511.88 130.39 515.433 130.39C518.813 130.39 521.846 129.61 524.533 128.05C527.22 126.403 529.17 124.02 530.383 120.9L533.503 130.26C532.03 134.767 529.343 138.19 525.443 140.53C521.543 142.87 516.516 144.04 510.363 144.04Z" fill="#C12122"/>
<path d="M310.16 204.66H353.97V221.04H310.16V204.66ZM311.72 242.1H361.25V259H290.79V168H359.56V184.9H311.72V242.1ZM363.075 259L394.405 217.92L394.015 229.1L363.985 189.06H386.735L405.715 215.19L397.135 215.45L416.765 189.06H438.345L408.185 228.71V217.79L439.385 259H416.375L396.485 231.18L404.935 232.35L385.175 259H363.075ZM486.67 260.04C480.776 260.04 475.62 258.74 471.2 256.14C466.78 253.54 463.313 249.597 460.8 244.31C458.373 238.937 457.16 232.177 457.16 224.03C457.16 215.797 458.33 209.037 460.67 203.75C463.01 198.463 466.39 194.52 470.81 191.92C475.23 189.32 480.516 188.02 486.67 188.02C493.256 188.02 499.15 189.537 504.35 192.57C509.636 195.517 513.796 199.677 516.83 205.05C519.95 210.423 521.51 216.75 521.51 224.03C521.51 231.397 519.95 237.767 516.83 243.14C513.796 248.513 509.636 252.673 504.35 255.62C499.15 258.567 493.256 260.04 486.67 260.04ZM445.33 284.22V189.06H464.7V203.36L464.31 224.16L465.61 244.83V284.22H445.33ZM483.16 243.4C486.54 243.4 489.53 242.62 492.13 241.06C494.816 239.5 496.94 237.29 498.5 234.43C500.146 231.483 500.97 228.017 500.97 224.03C500.97 219.957 500.146 216.49 498.5 213.63C496.94 210.77 494.816 208.56 492.13 207C489.53 205.44 486.54 204.66 483.16 204.66C479.78 204.66 476.746 205.44 474.06 207C471.373 208.56 469.25 210.77 467.69 213.63C466.13 216.49 465.35 219.957 465.35 224.03C465.35 228.017 466.13 231.483 467.69 234.43C469.25 237.29 471.373 239.5 474.06 241.06C476.746 242.62 479.78 243.4 483.16 243.4ZM531.185 259V162.54H551.465V259H531.185ZM609.287 259V245.35L607.987 242.36V217.92C607.987 213.587 606.644 210.207 603.957 207.78C601.357 205.353 597.327 204.14 591.867 204.14C588.14 204.14 584.457 204.747 580.817 205.96C577.264 207.087 574.23 208.647 571.717 210.64L564.437 196.47C568.25 193.783 572.844 191.703 578.217 190.23C583.59 188.757 589.05 188.02 594.597 188.02C605.257 188.02 613.534 190.533 619.427 195.56C625.32 200.587 628.267 208.43 628.267 219.09V259H609.287ZM587.967 260.04C582.507 260.04 577.827 259.13 573.927 257.31C570.027 255.403 567.037 252.847 564.957 249.64C562.877 246.433 561.837 242.837 561.837 238.85C561.837 234.69 562.834 231.05 564.827 227.93C566.907 224.81 570.157 222.383 574.577 220.65C578.997 218.83 584.76 217.92 591.867 217.92H610.457V229.75H594.077C589.31 229.75 586.017 230.53 584.197 232.09C582.464 233.65 581.597 235.6 581.597 237.94C581.597 240.54 582.594 242.62 584.587 244.18C586.667 245.653 589.484 246.39 593.037 246.39C596.417 246.39 599.45 245.61 602.137 244.05C604.824 242.403 606.774 240.02 607.987 236.9L611.107 246.26C609.634 250.767 606.947 254.19 603.047 256.53C599.147 258.87 594.12 260.04 587.967 260.04ZM685.231 188.02C690.778 188.02 695.718 189.147 700.051 191.4C704.471 193.567 707.938 196.947 710.451 201.54C712.965 206.047 714.221 211.853 714.221 218.96V259H693.941V222.08C693.941 216.447 692.685 212.287 690.171 209.6C687.745 206.913 684.278 205.57 679.771 205.57C676.565 205.57 673.661 206.263 671.061 207.65C668.548 208.95 666.555 210.987 665.081 213.76C663.695 216.533 663.001 220.087 663.001 224.42V259H642.721V189.06H662.091V208.43L658.451 202.58C660.965 197.9 664.561 194.303 669.241 191.79C673.921 189.277 679.251 188.02 685.231 188.02ZM757.304 260.04C749.071 260.04 742.657 257.96 738.064 253.8C733.471 249.553 731.174 243.27 731.174 234.95V173.59H751.454V234.69C751.454 237.637 752.234 239.933 753.794 241.58C755.354 243.14 757.477 243.92 760.164 243.92C763.371 243.92 766.101 243.053 768.354 241.32L773.814 255.62C771.734 257.093 769.221 258.22 766.274 259C763.414 259.693 760.424 260.04 757.304 260.04ZM720.384 206.22V190.62H768.874V206.22H720.384Z" fill="#C12122"/>
</svg>
