<svg width="421" height="645" viewBox="0 0 421 645" fill="none" xmlns="http://www.w3.org/2000/svg">
<path d="M188.465 1.00827C137.715 8.25824 92.3562 43.9505 73.0228 92.0978C58.151 128.905 57.2215 143.22 57.7792 326.328L58.3369 479.693L81.0164 480.251L103.696 480.809L104.44 322.238C104.997 185.046 105.555 161.995 108.157 150.655C115.593 117.938 125.818 98.0465 144.779 78.8991C169.876 53.6171 199.433 44.5082 231.78 52.1299C270.632 61.4248 299.446 93.585 312.459 142.848C316.549 157.719 316.549 161.066 317.664 318.892L318.594 479.693L341.459 480.251L364.139 480.809V460.732C363.953 449.764 362.838 374.104 361.35 292.867C358.376 132.438 358.19 129.091 347.408 98.976C330.863 53.6171 294.427 18.4826 250.555 5.84158C232.337 0.636475 205.568 -1.40839 188.465 1.00827ZM227.504 4.7262C244.235 7.14285 268.401 15.6941 281.6 23.5018C303.164 36.5146 325.1 60.4953 336.812 83.7325C342.761 95.8158 350.568 120.54 352.985 135.226C353.914 141.732 355.587 195.828 356.703 255.687C357.632 315.546 358.934 389.347 359.491 419.648L360.607 475.046H341.087H321.568L321.01 315.546L320.267 156.232L315.434 138.386C294.613 61.9825 229.363 25.9185 167.087 56.2197C160.767 59.3799 151.1 67.0017 141.619 76.4825C129.164 88.9376 125.074 94.5145 118.196 109.014C101.093 144.707 100.164 155.489 100.164 333.392V475.232L81.5741 474.674L62.7984 474.116V311.456C62.7984 172.405 63.3561 146.38 65.7728 132.438C69.4907 111.431 74.3241 96.9312 83.9908 78.1555C94.2152 58.2646 121.17 30.9377 140.132 21.0851C169.318 6.0275 198.132 0.636475 227.504 4.7262Z" fill="#990505"/>
<path d="M200.551 8.44835C200.551 9.37784 202.596 10.3073 205.198 10.3073C209.66 10.3073 209.846 10.6791 209.846 22.5765C209.846 30.1983 210.589 34.288 211.705 33.5445C212.82 32.9868 213.564 27.4099 213.564 21.2753C213.564 10.4932 213.75 10.3073 218.769 10.3073C222.673 10.3073 223.23 9.93553 221 8.44835C217.282 6.03169 200.551 6.03169 200.551 8.44835Z" fill="#990505"/>
<path d="M189.398 12.1674C189.398 22.2058 191.815 36.334 193.488 36.334C195.719 36.334 193.488 11.9815 191.072 9.37891C190.142 8.44942 189.398 9.56481 189.398 12.1674Z" fill="#990505"/>
<path d="M231.226 10.8641C229.738 14.9538 226.578 29.8256 226.578 32.9858C226.578 35.0307 228.623 36.5179 232.713 37.2615C235.873 38.0051 240.149 38.9345 242.008 39.3063C243.681 39.864 245.168 39.4922 245.168 38.5627C245.168 37.4474 241.822 36.1461 237.732 35.4025C231.411 34.2871 230.296 33.5435 230.296 29.4538C230.296 24.8064 230.668 24.8064 238.847 25.9217C248.7 27.223 248.328 24.4346 238.476 22.5756C233.642 21.6461 232.155 20.5307 232.899 18.4859C233.456 16.8128 234.014 14.9538 234.014 14.0243C234.014 13.0948 236.803 13.2807 239.963 14.2102C247.956 16.441 252.046 16.441 249.815 14.2102C246.655 11.05 231.969 8.44742 231.226 10.8641Z" fill="#990505"/>
<path d="M165.789 18.3009C166.161 19.6022 167.648 25.5509 168.949 31.3137L171.18 42.0957L176.943 40.7944C186.424 38.9355 189.584 35.9611 181.033 37.2624L173.411 38.3778L171.18 27.2239C169.879 20.9034 167.834 15.8842 166.904 15.8842C165.789 15.8842 165.231 16.9996 165.789 18.3009Z" fill="#990505"/>
<path d="M255.576 29.0843C252.788 35.4048 251.115 40.9817 251.858 41.7253C252.602 42.283 253.531 41.7253 253.903 40.424C255.019 37.4497 259.852 32.6163 261.897 32.6163C262.64 32.6163 263.942 36.3343 264.499 40.9817C265.243 45.4432 266.73 49.9048 267.846 50.4625C269.704 51.7637 268.961 43.0266 266.358 34.1035C265.801 31.8728 267.288 30.3856 272.493 28.7125C276.769 27.2253 278.442 26.1099 276.397 25.5523C274.724 25.3664 270.262 26.2958 266.544 27.783C259.108 30.9433 258.922 30.5715 262.826 20.9048C263.57 19.2318 263.384 17.7446 262.269 17.7446C261.339 17.7446 258.365 22.9497 255.576 29.0843Z" fill="#990505"/>
<path d="M140.509 28.5244C135.861 33.7296 136.605 43.0244 141.996 48.4154C147.759 54.3641 152.964 54.3641 158.727 48.4154C164.304 42.8385 164.675 36.518 159.47 30.0116C154.823 24.0629 145.156 23.3193 140.509 28.5244ZM155.38 31.127C162.816 38.0052 160.214 49.3449 151.291 49.3449C142.182 49.3449 136.977 34.659 144.041 29.4539C148.502 26.1078 150.361 26.2937 155.38 31.127Z" fill="#990505"/>
<path d="M279.747 44.8835C275.843 50.4604 273.24 55.6655 273.798 56.4091C274.541 56.9668 276.214 55.8514 277.516 53.8066C279.003 51.9476 281.606 48.2296 283.65 45.9989L287.182 41.5373L286.439 54.9219C285.509 71.2809 287.368 71.4668 297.593 56.7809C304.471 47.1143 305.772 40.2361 299.08 49.345C289.227 62.5437 289.971 62.7296 289.785 47.8578C289.785 40.6079 289.227 34.4733 288.484 34.4733C287.554 34.4733 283.836 39.1207 279.747 44.8835Z" fill="#990505"/>
<path d="M114.666 49.1533L108.717 54.3585L116.71 64.0251C121.172 69.2302 125.448 73.5059 126.377 73.5059C128.98 73.5059 128.422 71.461 125.076 67.7431C122.287 64.5828 122.287 64.0251 126.935 58.6341C132.512 51.7559 132.698 50.6405 128.794 46.7367C124.704 42.4611 121.544 43.0187 114.666 49.1533ZM127.121 49.3392C128.794 51.9418 123.031 60.4931 119.685 60.4931C118.198 60.4931 116.153 58.82 115.037 56.961C113.55 53.9867 113.922 52.6854 117.268 50.4546C122.101 46.9226 125.448 46.7367 127.121 49.3392Z" fill="#990505"/>
<path d="M302.791 67.9345C297.214 72.7678 293.31 77.6011 294.054 78.3447C294.797 79.0883 299.817 75.5563 305.022 70.1652C310.413 64.9601 314.317 60.3127 313.759 59.755C313.387 59.1973 308.368 62.9153 302.791 67.9345Z" fill="#990505"/>
<path d="M308.743 79.2701C298.89 86.8919 294.986 93.2124 303.909 87.4496C306.512 85.7765 309.858 84.847 311.345 85.4047C313.576 86.3342 313.576 87.4496 310.973 93.956C308.928 99.1611 308.557 102.321 309.672 103.437C310.973 104.738 312.461 102.321 313.948 96.0009L316.179 86.5201L323.8 87.8214C328.634 88.565 330.864 88.3791 330.121 87.0778C329.377 85.9624 324.916 84.4753 320.082 83.7317L311.159 82.4304L316.55 78.1548C326.031 70.7189 318.781 71.6484 308.743 79.2701Z" fill="#990505"/>
<path d="M91.8044 84.6635C90.689 86.5225 106.49 111.061 108.163 109.574C108.721 108.83 108.163 106.599 106.676 104.555C102.958 99.3494 108.163 91.3558 114.484 92.6571C122.292 94.1443 120.99 90.4264 112.811 88.3815C108.349 87.2661 102.029 85.593 98.8685 84.6635C95.5223 83.7341 92.3621 83.7341 91.8044 84.6635ZM104.631 89.4969C106.862 90.4264 107.048 91.3558 105.561 94.1443C103.516 98.234 101.099 97.4904 98.3108 91.9135C96.2659 88.1956 98.6826 87.2661 104.631 89.4969Z" fill="#990505"/>
<path d="M83.4343 106.784C83.4343 107.9 87.3382 111.246 92.3574 114.406L101.095 119.983H89.569C83.0625 119.983 77.8574 120.726 77.8574 121.656C77.8574 122.771 81.0177 125.746 84.9215 128.534C96.2613 136.9 96.2613 137.271 84.9215 135.97C79.1587 135.226 73.9535 135.412 73.3958 136.342C72.0946 138.573 98.6779 140.803 100.723 138.758C101.652 137.829 98.1203 134.111 92.5433 130.393L82.5048 123.701H94.2164C100.537 123.701 105.742 122.957 105.742 122.028C105.742 121.098 101.838 117.38 97.0049 113.848C85.1074 105.483 83.4343 104.553 83.4343 106.784Z" fill="#990505"/>
<path d="M328.448 120.358C322.499 122.402 317.666 124.819 317.666 125.749C317.666 127.979 318.224 127.979 326.961 124.447C331.237 122.774 334.955 121.845 335.512 122.216C335.884 122.774 333.281 127.05 329.749 131.697C323.429 139.877 321.756 144.152 324.73 144.152C328.076 144.152 349.269 135.973 349.269 134.486C349.269 132.255 346.294 132.627 338.672 135.787C328.448 140.063 328.076 139.319 336.256 128.723C340.346 123.146 343.692 118.127 343.692 117.569C343.692 115.524 339.974 116.268 328.448 120.358Z" fill="#990505"/>
<path d="M73.582 151.214C68.0051 157.348 70.6076 168.316 77.3 168.316C78.6012 168.316 81.7615 164.97 84.3641 160.695C89.7551 152.515 93.2872 151.957 94.2167 159.579C94.5885 162.925 93.659 165.156 91.0564 166.829C86.0372 169.989 86.0372 172.034 91.0564 170.733C95.8897 169.432 99.05 162.554 97.5628 156.605C95.332 147.31 85.8513 148.797 81.5756 159.022C79.1589 164.784 75.2551 166.457 73.582 162.182C72.4666 159.207 75.441 151.586 77.8576 151.586C78.7871 151.586 79.7166 150.656 79.7166 149.727C79.7166 146.752 76.9282 147.496 73.582 151.214Z" fill="#990505"/>
<path d="M342.762 154.376C341.832 154.748 336.813 155.491 331.98 156.235L323.057 157.35L324.358 166.088C326.031 178.543 329.191 180.773 328.448 169.248C327.89 161.068 328.262 159.953 331.794 159.395C334.954 159.023 336.069 160.325 337.557 166.831L339.602 174.825L339.787 166.831C340.159 152.889 349.268 154.19 349.268 168.132C349.268 172.036 350.012 173.895 350.941 172.78C351.871 171.85 352.057 167.389 351.313 162.741C350.198 154.748 347.967 152.517 342.762 154.376Z" fill="#990505"/>
<path d="M68.5625 183.003C68.5625 184.862 92.9151 187.093 95.5177 185.42C97.7485 183.933 85.4792 181.516 75.6266 181.516C71.7228 181.33 68.5625 182.074 68.5625 183.003Z" fill="#990505"/>
<path d="M330.494 186.723C327.52 189.14 326.219 192.114 326.219 196.762C326.219 204.755 329.565 209.217 335.514 209.217C339.232 209.217 339.975 208.287 339.975 203.64C339.975 200.48 339.232 198.063 338.116 198.063C337.187 198.063 336.257 199.736 336.257 201.781C336.257 206.242 331.61 206.8 329.937 202.525C325.475 190.813 339.789 181.146 347.969 190.255C351.873 194.531 352.059 198.807 348.155 202.71C344.437 206.428 346.11 208.845 350.2 205.499C354.289 202.153 353.732 191.371 349.27 186.909C344.623 182.262 336.071 182.076 330.494 186.723Z" fill="#990505"/>
<path d="M83.8072 196.763C82.6918 197.878 81.2046 201.41 80.6469 204.199C78.9738 210.333 74.5123 212.75 72.0956 209.032C69.8648 205.314 70.0507 204.384 73.3969 200.852C77.1148 197.134 75.4418 194.718 71.352 198.064C67.82 201.038 67.6341 209.961 71.352 212.936C75.9995 216.84 80.461 214.237 83.2495 205.872C84.9226 200.109 86.5956 198.064 88.8264 198.436C93.288 199.365 93.8457 208.846 89.57 212.006C87.711 213.307 86.9674 215.166 87.711 216.096C89.7559 218.141 96.4482 209.775 96.4482 205.128C96.4482 196.205 88.6405 191 83.8072 196.763Z" fill="#990505"/>
<path d="M326.406 217.952C324.361 219.811 324.919 237.1 326.964 237.1C328.079 237.1 328.823 233.382 328.823 228.734C328.823 221.112 329.194 220.369 333.47 220.369C337.746 220.369 338.118 221.112 338.118 227.805C338.118 231.894 339.047 235.241 340.162 235.241C341.278 235.241 341.836 232.452 341.464 228.177C340.906 222.228 341.464 221.298 345.182 220.741C348.9 220.183 349.271 220.927 349.271 227.619C349.271 231.709 350.201 235.612 351.13 236.17C352.246 236.914 352.989 233.382 352.989 227.061V216.651H340.348C333.284 216.651 326.964 217.209 326.406 217.952Z" fill="#990505"/>
<path d="M82.5021 227.246C69.8611 232.451 65.9572 235.24 68.0021 237.099C70.7906 239.516 92.9124 246.951 94.0278 245.836C94.5855 245.092 92.9124 243.605 90.1239 242.49C83.4316 239.33 83.4316 231.15 89.9381 228.176C92.5406 227.06 94.5855 225.201 94.5855 224.086C94.5855 223.157 94.3996 222.227 94.2137 222.413C93.8419 222.413 88.6368 224.644 82.5021 227.246ZM83.4316 235.24C83.4316 239.144 81.2009 239.701 75.0662 237.099C71.5342 235.612 71.5342 235.612 75.9957 233.753C82.688 230.964 83.4316 231.15 83.4316 235.24Z" fill="#990505"/>
<path d="M326.035 246.392C325.291 247.508 327.522 248.251 331.426 248.251C337.189 248.251 338.118 248.809 338.118 252.713C338.118 255.873 336.259 258.476 332.541 260.707C329.567 262.38 326.964 264.982 326.964 266.469C326.964 269.072 329.381 268.142 334.772 263.495C337.56 261.078 338.304 261.264 340.906 263.867C347.599 270.559 352.99 265.912 352.99 253.457V244.533H340.163C332.913 244.533 326.592 245.277 326.035 246.392ZM351.131 253.271C351.131 260.149 348.528 263.867 344.81 262.566C342.951 261.822 341.836 259.033 341.836 254.758C341.836 248.995 342.394 248.251 346.483 248.251C350.387 248.251 351.131 249.181 351.131 253.271Z" fill="#990505"/>
<path d="M69.4928 257.546C70.0505 258.476 72.6531 259.405 75.2557 259.405C79.1595 259.405 79.7172 260.149 79.7172 266.655C79.7172 273.533 79.3454 274.091 73.7685 274.835C70.4223 275.206 74.3262 275.578 82.5057 275.578C90.6852 275.578 94.2172 275.206 90.4993 274.835C83.6211 274.091 83.4352 273.905 83.4352 266.655C83.4352 259.591 83.6211 259.405 89.9416 259.405C93.4736 259.405 96.448 258.476 96.448 257.546C96.448 256.431 90.4993 255.687 82.3198 255.687C73.5826 255.687 68.7492 256.431 69.4928 257.546Z" fill="#990505"/>
<path d="M333.098 277.442C336.816 277.814 343.136 277.814 347.04 277.442C350.758 277.07 347.598 276.698 339.976 276.698C332.354 276.698 329.194 277.07 333.098 277.442Z" fill="#990505"/>
<path d="M80.2741 290.453C73.7676 293.242 68.5625 296.402 68.5625 297.517C68.5625 298.818 73.024 301.421 78.4151 303.652C83.6202 305.697 89.569 307.927 91.4279 308.671C93.101 309.415 94.5882 309.229 94.5882 308.113C94.5882 306.998 92.9151 305.511 90.8702 304.953C88.0818 304.024 87.1523 302.165 87.1523 297.517C87.1523 292.87 88.0818 291.011 90.8702 290.081C94.4023 288.966 96.2613 285.248 93.2869 285.62C92.3574 285.62 86.5946 287.851 80.2741 290.453ZM83.4343 297.331C83.4343 301.793 83.0625 301.793 77.4856 299.934L71.351 297.703L76.9279 295.472C80.0882 294.171 82.6907 293.056 83.0625 292.87C83.2484 292.87 83.4343 294.915 83.4343 297.331Z" fill="#990505"/>
<path d="M329.563 301.795C326.403 303.84 325.473 308.301 327.332 311.834C328.633 314.436 331.422 315.18 340.903 315.18C347.781 315.18 352.986 314.436 352.986 313.321C352.986 312.205 348.153 311.462 342.018 311.462C330.306 311.462 326.031 308.859 331.422 304.769C334.768 302.353 332.909 299.564 329.563 301.795Z" fill="#990505"/>
<path d="M70.7966 320.196C71.1684 321.869 75.0722 324.471 80.0915 326.144C84.9248 327.817 89.2005 329.676 89.7582 330.234C90.3159 330.792 86.2261 332.837 80.6492 334.696C65.7774 339.901 67.0786 343.061 83.9953 342.689L97.38 342.503L86.2261 341.388L75.0722 340.273L85.1107 336.555C90.6877 334.51 95.521 331.907 95.8928 330.792C96.2646 329.862 91.6171 327.26 85.8543 325.215L75.0722 321.683L85.8543 321.125C100.912 320.382 99.0531 317.035 83.2517 317.035C72.0979 317.035 70.2389 317.407 70.7966 320.196Z" fill="#990505"/>
<path d="M326.963 338.598C326.963 344.918 327.706 348.45 328.822 347.707C329.937 346.963 330.123 343.431 329.565 339.155C328.45 332.277 328.636 331.905 332.912 331.905C337.001 331.905 337.931 333.021 339.232 339.713L340.719 347.707L341.463 339.713C342.021 332.835 342.578 331.905 346.482 331.905C350.386 331.905 350.944 332.835 351.687 340.643C352.245 349.38 352.245 349.38 352.617 338.784L352.989 328.188H339.976H326.963V338.598Z" fill="#990505"/>
<path d="M326.963 357.747C326.963 358.862 331.424 359.792 336.815 360.164L346.482 360.721L336.63 364.068C331.239 366.112 327.149 368.529 327.335 369.459C327.706 370.574 332.168 372.805 337.187 374.478L346.482 377.452L338.117 378.01C323.245 379.125 325.104 382.1 340.719 382.1C358.194 382.1 358.937 379.311 342.764 373.548L331.796 369.645L341.091 366.298C359.123 359.606 358.751 356.074 339.79 356.074C332.726 356.074 326.963 356.818 326.963 357.747Z" fill="#990505"/>
<path d="M83.8104 365.74C82.8809 367.042 80.6501 371.317 78.977 375.407C76.5604 381.356 75.6309 382.285 73.2142 380.24C69.4963 377.266 69.6822 372.99 73.586 368.715C75.2591 366.856 75.6309 365.369 74.7014 365.369C70.9834 365.369 68.3809 370.76 68.9386 376.894C69.4963 382.285 70.0539 383.029 74.8873 383.029C79.7206 383.029 80.6501 382.099 83.0668 375.035C84.9258 369.272 86.5989 367.228 88.8296 367.599C93.1053 368.343 93.663 376.151 89.7591 380.426C88.086 382.285 87.1565 384.516 87.9001 385.445C89.7591 387.119 96.4514 378.939 96.4514 374.849C96.4514 370.76 91.2463 363.51 88.2719 363.51C86.7848 363.51 84.9258 364.625 83.8104 365.74Z" fill="#990505"/>
<path d="M88.2677 395.293C83.992 398.64 83.2484 398.64 82.3189 396.223C80.6459 392.133 72.8381 392.505 70.4215 396.781C69.492 398.826 68.5625 403.473 68.5625 407.005V413.697L83.0625 413.511C90.8702 413.325 94.96 412.768 91.7997 412.396C88.8254 411.838 85.4792 410.909 84.7356 409.979C81.9471 407.377 84.9215 401.614 90.8702 398.268C93.8446 396.409 96.4472 394.178 96.4472 393.063C96.4472 390.274 93.6587 391.018 88.2677 395.293ZM81.2036 403.287C81.9471 409.608 79.7164 412.396 75.4407 410.723C73.3958 409.979 72.2805 407.377 72.2805 403.101C72.2805 397.524 72.8381 396.781 76.5561 397.338C79.5305 397.71 80.8318 399.383 81.2036 403.287Z" fill="#990505"/>
<path d="M326.963 399.948C326.963 403.48 327.892 408.127 328.822 410.172C330.867 413.704 336.258 415.005 338.86 412.217C339.604 411.473 342.95 410.916 346.11 410.916C350.758 410.916 352.059 409.986 353.36 405.339C356.149 394.928 354.29 393.255 339.79 393.255H326.963V399.948ZM339.976 401.063C339.976 407.012 337.187 410.73 333.655 409.428C331.796 408.685 330.681 406.082 330.681 402.55C330.681 397.903 331.424 396.973 335.328 396.973C338.86 396.973 339.976 397.903 339.976 401.063ZM351.13 401.621C351.13 407.012 345.924 409.986 343.508 406.082C340.348 401.063 341.649 396.973 346.482 396.973C350.2 396.973 351.13 397.903 351.13 401.621Z" fill="#990505"/>
<path d="M92.7292 429.503C92.7292 437.124 92.3574 437.868 88.2677 437.868C84.1779 437.868 83.6202 436.939 82.8766 429.874L82.133 422.067L81.9471 429.874C81.5753 437.124 81.0177 437.868 76.9279 437.868C72.8381 437.868 72.2805 437.124 72.2805 430.432C72.2805 426.342 71.5369 422.996 70.4215 422.996C69.492 422.996 68.5625 427.086 68.5625 432.291V441.586H82.5048H96.4472V431.362C96.4472 425.785 95.7036 421.137 94.5882 421.137C93.6587 421.137 92.7292 424.855 92.7292 429.503Z" fill="#990505"/>
<path d="M326.963 433.225C326.963 438.802 327.892 443.449 328.822 443.449C329.937 443.449 330.681 439.731 330.681 435.084C330.681 427.462 331.053 426.718 335.328 426.718C339.604 426.718 339.976 427.462 339.976 434.154C339.976 438.244 340.905 441.59 341.835 441.59C342.95 441.59 343.694 438.244 343.694 434.154C343.694 428.02 344.251 426.718 347.412 426.718C350.572 426.718 351.13 428.02 351.13 434.154C351.13 438.244 352.059 441.59 352.989 441.59C354.104 441.59 354.848 437.315 354.848 432.295V423.001H340.905H326.963V433.225Z" fill="#990505"/>
<path d="M70.4215 452.552C69.492 454.597 68.5625 459.244 68.5625 462.776V469.469H83.0625C92.9151 469.469 96.4472 468.911 94.5882 467.61C93.101 466.68 90.3125 465.751 88.6395 465.751C86.2228 465.751 85.2933 464.264 85.2933 460.917C85.2933 453.667 81.9471 449.02 76.9279 449.02C74.3253 449.02 71.5369 450.507 70.4215 452.552ZM81.2036 459.802C81.7612 465.193 81.3894 465.751 77.1138 465.751C73.024 465.751 72.2805 464.821 72.2805 460.546C72.2805 454.411 73.7676 452.366 77.8574 453.11C79.5305 453.482 80.8318 456.084 81.2036 459.802Z" fill="#990505"/>
<path d="M328.822 450.879C328.822 451.809 331.425 452.738 334.399 452.738C342.021 452.738 341.835 458.501 334.027 464.636C330.681 467.238 328.636 469.841 329.38 470.584C330.124 471.328 332.726 470.027 335.329 467.61C339.79 463.52 340.162 463.334 342.393 466.494C343.88 468.539 346.668 469.655 349.457 469.097C353.361 468.539 353.918 467.61 354.476 458.687L355.034 449.02H342.021C334.399 449.02 328.822 449.764 328.822 450.879ZM352.617 458.687C352.245 463.334 351.13 465.007 347.97 465.379C344.252 465.937 343.694 465.193 343.694 459.43C343.694 453.482 344.252 452.738 348.527 452.738C352.803 452.738 353.175 453.296 352.617 458.687Z" fill="#990505"/>
<path d="M204.455 92.8422C197.02 119.797 191.257 158.278 191.257 180.772V197.874L184.379 195.086C160.398 185.047 139.949 211.816 136.231 258.477L134.93 273.348L141.25 264.053C145.154 258.291 149.244 254.573 151.846 254.201C156.68 253.457 156.866 254.015 152.962 268.887C151.289 275.765 150.359 283.387 151.103 287.476C152.032 292.867 151.103 296.585 148.128 302.534C144.225 309.784 143.853 313.13 143.853 336.553C143.853 370.387 146.455 467.611 147.757 480.252L148.872 489.918L155.564 484.713C165.975 476.534 173.596 473.188 181.962 473.188C191.071 473.188 195.532 475.233 203.898 483.04C210.404 489.361 209.661 489.547 221.93 479.88C235.315 469.098 253.347 471.515 270.077 486.2L276.398 491.777L277.885 438.425C278.815 408.867 279.558 367.784 279.558 346.778C279.558 312.387 279.186 308.111 275.84 302.162C273.424 297.701 272.494 293.053 272.866 287.105C273.052 282.271 272.122 273.162 270.449 266.842C266.731 252.528 266.731 253.457 271.565 254.201C273.981 254.573 278.629 258.477 282.347 263.496C285.879 268.329 289.039 272.047 289.225 271.675C290.526 270.374 285.507 238.586 282.347 227.618C273.609 198.246 254.462 185.977 234.943 196.945L226.206 201.778L227.321 197.502C233.641 175.566 233.084 153.259 225.648 125.374C223.045 115.708 219.327 100.836 217.282 92.2845C215.238 83.7333 212.821 75.5538 211.891 74.0666C210.962 72.2077 208.545 78.3423 204.455 92.8422ZM215.609 102.509C217.468 111.804 217.468 114.964 215.423 119.797L213.007 125.746L208.731 117.195C204.27 108.829 204.27 108.458 207.43 97.4897C210.962 84.8487 212.077 85.5923 215.609 102.509ZM208.917 127.233C211.705 135.784 211.705 137.458 208.545 151.958C204.641 170.547 204.084 204.38 207.616 210.515C211.52 217.579 208.545 215.348 201.481 206.239C195.161 197.874 194.975 196.945 194.975 181.515C194.975 172.778 196.276 156.791 197.763 146.009C202.596 112.361 203.34 110.874 208.917 127.233ZM223.975 133.182C230.481 158.278 229.18 183.56 219.885 203.451C215.609 213.118 215.052 213.675 212.635 210.329C208.545 204.938 207.43 188.579 209.661 170.733C212.077 152.515 218.955 121.099 220.443 122.4C220.814 122.958 222.488 127.791 223.975 133.182ZM183.449 198.989C190.141 201.778 206.129 215.906 206.129 218.88C206.129 219.624 201.109 220.368 194.975 220.368C184.564 220.368 183.821 219.996 181.032 214.977C179.545 211.816 174.712 207.355 170.436 204.752C162.628 200.105 162.628 200.105 167.09 198.246C173.596 195.643 175.641 195.829 183.449 198.989ZM258.738 199.361C259.481 199.919 256.879 202.336 252.975 204.938C248.885 207.541 244.238 212.188 242.565 214.977C239.59 219.996 238.475 220.368 228.25 220.368C222.302 220.368 217.282 219.81 217.282 218.88C217.468 214.791 235.686 199.175 242.379 197.502C246.097 196.573 255.949 197.688 258.738 199.361ZM171.552 211.445C181.218 219.438 179.731 226.688 169.878 219.252C167.834 217.765 163.186 215.72 159.282 214.605C152.404 212.746 152.218 212.746 155.007 208.47C158.539 203.079 162.257 203.823 171.552 211.445ZM269.334 209.214C271.007 212.374 270.263 212.932 263.757 214.791C259.667 215.906 254.834 218.323 253.161 220.182C250.93 222.413 248.513 223.156 246.282 222.413C243.122 221.111 243.308 220.739 247.77 215.348C252.789 209.4 263.385 203.265 265.988 204.752C266.731 205.31 268.218 207.355 269.334 209.214ZM164.859 221.483L169.321 224.271L161.141 229.477C156.68 232.451 150.173 238.028 147.013 241.932C140.321 249.925 139.949 249.368 143.667 236.169C148.686 217.951 149.802 216.092 155.564 217.579C158.353 218.137 162.443 219.996 164.859 221.483ZM274.539 218.88C276.584 221.669 282.347 240.816 282.347 245.278C282.347 246.951 278.815 244.348 273.981 239.143C269.334 234.124 263.013 229.105 260.039 227.803C253.718 225.201 254.276 222.97 262.641 219.252C269.891 216.092 272.122 216.092 274.539 218.88ZM187.539 229.477C187.539 237.842 182.705 247.694 177.872 248.996C173.225 250.111 161.513 250.483 161.513 249.368C161.513 248.996 162.814 246.207 164.302 243.419C165.789 240.445 167.09 236.169 167.09 233.938C167.09 230.592 168.949 229.291 176.013 227.06C187.725 223.342 187.539 223.342 187.539 229.477ZM206.314 227.246C204.084 231.336 191.629 243.605 190.699 242.489C190.327 242.118 190.327 237.842 190.885 232.823L191.629 224.086H199.808C207.244 224.086 207.988 224.457 206.314 227.246ZM231.411 230.034C231.597 233.009 232.34 236.912 233.084 238.957C233.641 241.002 233.456 242.675 232.526 242.675C230.295 242.675 215.423 227.989 215.423 225.573C215.423 224.643 218.955 224.086 223.045 224.457C229.923 225.015 230.853 225.573 231.411 230.034ZM246.282 226.874C254.834 229.291 255.763 230.22 257.808 237.47C259.109 241.932 260.597 246.579 261.154 247.694C261.898 249.368 260.225 250.111 255.577 250.111C245.539 250.111 240.334 247.323 237.917 240.63C236.058 235.239 235.129 224.086 236.43 224.086C236.802 224.086 241.263 225.387 246.282 226.874ZM214.308 235.611C216.539 243.977 215.609 248.252 211.705 248.252C208.917 248.252 207.988 246.951 207.988 242.861C207.988 232.265 212.077 227.618 214.308 235.611ZM160.769 241.188C157.795 247.323 146.641 254.015 146.641 249.739C146.641 247.137 161.327 232.637 162.628 233.938C163.186 234.496 162.443 237.842 160.769 241.188ZM276.956 248.624C278.443 251.412 278.071 251.598 273.052 249.739C266.731 247.694 261.898 241.746 261.898 236.355C261.898 233.195 262.827 233.566 268.59 239.143C272.308 242.489 276.026 246.951 276.956 248.624ZM204.27 244.534C204.27 248.252 203.34 250.111 201.481 250.111C199.436 250.111 198.693 252.342 198.693 258.291C198.693 263.496 197.577 267.214 195.718 268.887C194.045 270.188 190.327 275.579 187.353 280.598C182.148 289.707 181.962 289.893 174.154 289.335C169.693 289.15 165.603 287.848 164.859 286.733C162.443 282.829 163.186 274.65 167.09 264.239C170.622 254.944 171.552 254.015 178.802 252.342C183.077 251.227 190.327 247.694 194.975 244.72C199.622 241.746 203.526 239.143 203.898 239.143C204.084 238.957 204.27 241.374 204.27 244.534ZM243.494 251.97C250.372 253.643 252.603 255.316 255.02 260.335C258.924 268.329 260.783 278.739 259.295 284.316C258.366 288.034 256.879 288.964 249.629 289.521C241.449 290.079 240.891 289.893 237.731 283.573C235.872 280.041 231.968 274.65 229.18 271.675C225.834 268.143 223.975 263.682 223.231 258.291C222.859 253.829 221.558 250.111 220.814 250.111C219.885 250.111 219.141 247.509 219.141 244.348V238.771L227.135 244.348C231.411 247.323 238.847 250.855 243.494 251.97ZM217.468 253.829C218.398 253.829 219.141 256.246 219.141 259.406C219.141 264.611 218.77 264.983 211.705 264.983C204.641 264.983 204.27 264.611 204.27 259.592C204.27 254.015 207.802 251.598 213.193 253.086C214.68 253.457 216.539 253.829 217.468 253.829ZM163 263.496C160.398 270.56 159.654 275.765 160.212 282.085C161.141 288.778 160.584 291.009 158.353 291.752C155.75 292.867 155.564 291.009 156.308 278.553C157.423 262.38 160.026 253.829 164.116 253.829C166.161 253.829 165.975 255.688 163 263.496ZM266.174 267.771C269.334 282.085 268.776 293.239 264.872 291.752C263.199 291.194 262.827 287.662 263.385 281.156C263.943 274.65 263.199 268.887 261.154 264.239C257.622 255.502 257.436 253.829 260.597 253.829C262.27 253.829 264.315 258.848 266.174 267.771ZM226.949 275.579C228.994 277.438 232.34 282.271 234.385 286.175L238.103 293.425L228.25 341.944C222.673 368.528 217.84 388.604 217.468 386.745C217.097 384.701 218.77 362.021 221 336.182C224.347 299.932 224.904 288.778 223.231 286.733C220.071 282.829 200.738 282.829 199.25 286.733C198.693 288.22 199.622 306.81 201.295 328.002C202.968 349.008 204.827 371.316 205.199 377.451L206.129 388.604L202.411 374.662C200.552 367.04 195.904 345.662 192.186 327.444C185.494 294.912 185.494 293.983 188.468 287.105C192.558 278.368 199.994 271.118 206.129 270.188C213.007 269.259 222.673 271.675 226.949 275.579ZM179.359 294.355C180.475 295.098 186.981 323.169 193.859 357.002C200.738 390.649 206.686 419.835 207.244 421.508C208.173 424.483 207.244 424.297 199.25 420.765C186.237 415.002 170.436 415.188 159.096 421.508L150.359 426.527V416.861C150.359 411.47 149.43 391.207 148.5 371.688C145.712 317.034 148.686 300.303 162.443 294.726C167.09 292.682 176.757 292.496 179.359 294.355ZM264.872 296.585C274.911 302.906 275.84 308.669 275.468 357.002C275.283 380.425 274.539 405.707 273.981 412.957L272.866 426.342L264.129 421.508C253.347 415.374 236.988 415.188 224.161 420.765C219.327 422.995 215.423 423.925 215.423 422.995C215.423 422.066 218.212 408.124 221.744 391.951C225.276 375.778 231.225 347.893 234.943 330.047C238.847 312.201 242.75 296.4 243.68 295.098C246.654 291.566 257.994 292.496 264.872 296.585ZM198.321 424.854C202.596 426.713 206.686 429.688 207.244 431.361C208.545 434.521 213.564 435.265 213.564 432.29C213.564 428.572 232.712 421.136 242.565 421.136C255.763 421.136 271.936 429.316 272.68 436.38C273.052 439.354 272.866 441.585 272.494 441.585C272.122 441.585 267.661 439.726 262.641 437.495C249.071 431.547 231.968 431.733 220.629 438.239L211.705 443.258L202.968 438.239C191.629 431.918 174.34 431.733 160.955 437.681C155.936 439.726 151.475 441.585 151.103 441.585C150.545 441.585 150.359 439.354 150.731 436.38C151.103 432.29 153.334 430.431 161.327 426.156C173.596 420.021 186.609 419.463 198.321 424.854ZM202.411 442.886L211.334 447.906L221 442.701C229.738 437.867 231.968 437.495 244.052 438.239C252.603 438.797 260.039 440.656 265.244 443.258C272.494 446.976 273.052 447.72 273.052 454.598V462.034L264.129 457.572C247.026 449.021 230.481 449.579 217.468 459.059L211.148 463.707L205.757 459.245C194.417 449.765 177.128 449.021 160.769 457.2C156.122 459.617 151.846 461.104 151.289 460.547C150.731 459.989 150.359 456.829 150.359 453.483C150.359 448.277 151.475 446.79 156.308 444.188C165.603 439.354 170.808 438.239 182.705 438.053C191.257 437.867 195.346 438.983 202.411 442.886ZM202.039 462.22C211.705 468.726 212.449 468.726 219.513 462.963C231.411 452.925 247.77 452.925 265.244 463.149C271.379 466.867 273.052 468.726 273.052 473.002C273.052 480.624 271.565 480.995 262.456 475.79C246.097 466.124 232.154 466.495 218.77 477.091L211.705 482.668L204.827 477.091C196.09 470.399 185.122 467.239 176.385 469.284C168.949 470.957 158.539 475.976 156.866 478.765C154.449 482.668 152.218 480.252 152.218 473.559C152.218 467.053 152.962 465.938 160.026 462.034C175.641 453.297 189.026 453.297 202.039 462.22Z" fill="#990505"/>
<path d="M71.3523 510.74C57.0381 523.009 34.5445 542.528 21.1598 553.868C3.87135 568.74 -1.89149 574.689 0.525186 575.06C2.38416 575.432 12.2367 574.874 22.4611 573.573C32.6855 572.458 41.2368 571.714 41.6086 572.086C41.7945 572.458 32.8714 588.445 21.5316 607.592C0.339289 644.214 -1.51969 650.72 12.0509 640.868C15.9547 638.079 33.615 625.81 51.2753 613.913L83.2497 592.163L86.41 597.368L89.5702 602.759L192.929 604.06C249.814 604.804 304.468 604.804 314.507 604.06C331.981 602.759 332.725 602.573 335.513 597.554L338.116 592.163L346.109 597.368C350.571 600.156 368.231 612.054 385.52 623.765C402.622 635.477 417.308 644.772 417.866 644.214C420.097 642.355 418.052 637.894 399.462 606.105C388.866 588.073 380.686 573.015 381.244 572.644C381.616 572.272 389.795 572.644 399.276 573.759C427.718 576.919 427.718 577.291 399.462 552.939C385.706 541.041 363.212 521.522 349.455 509.625C335.699 497.727 323.801 488.061 322.872 488.061C322.128 488.061 321.385 490.849 321.385 494.195C321.385 499.958 324.545 506.093 330.494 512.227C332.91 514.644 319.712 515.016 212.635 515.573C146.455 515.759 91.801 515.573 91.4292 515.201C91.0574 514.83 92.7305 511.298 95.519 507.58C99.9805 500.887 102.025 488.061 98.6792 488.061C97.9356 488.061 85.4805 498.285 71.3523 510.74ZM96.4485 498.285C96.4485 499.772 93.1023 504.419 88.8267 508.695L81.2048 516.317L81.0189 552.567L80.6471 589.003L51.833 608.708C36.0317 619.676 19.8586 630.458 15.7688 632.874L8.51879 637.336L11.4932 632.874C19.3009 620.233 48.115 569.669 48.115 568.368C48.115 567.067 33.9868 567.996 15.0252 570.599C11.3073 571.157 9.44828 570.785 10.1919 569.669C11.4932 567.439 94.4036 495.496 95.519 495.496C96.0767 495.496 96.4485 496.798 96.4485 498.285ZM369.346 532.118C392.584 552.195 411.917 569.298 412.103 570.227C412.475 571.157 409.686 571.342 405.597 570.785C380.686 567.067 373.25 566.695 374.366 569.669C375.481 572.272 400.206 615.772 409.315 631.015C413.962 638.823 416.379 640.124 373.994 611.31L339.975 588.259V553.868C339.975 527.842 340.532 519.663 342.391 519.663C343.507 519.663 341.648 516.875 338.116 513.714C329.193 505.721 322.5 495.496 326.218 495.496C326.776 495.496 346.109 511.855 369.346 532.118ZM336.257 554.24C336.257 586.214 335.885 589.189 332.353 594.208L328.635 599.599H210.59H92.7305L89.0126 593.464C85.6664 588.073 85.2946 584.169 85.2946 553.496V519.663H210.776H336.257V554.24Z" fill="#990505"/>
<path d="M226.39 537.693C224.345 538.065 223.602 539.738 224.159 541.783C224.531 543.642 223.23 550.892 221.185 557.77C218.954 564.648 217.281 571.898 217.281 573.757C217.281 578.219 223.23 578.404 226.762 574.129C228.621 572.084 228.621 571.526 227.134 572.456C223.788 574.315 224.159 571.154 229.365 553.308C231.967 544.571 234.012 537.321 234.012 536.949C234.012 536.206 230.294 536.578 226.39 537.693Z" fill="#990505"/>
<path d="M124.702 555.541C122.285 565.208 119.125 573.573 117.452 574.874C114.849 576.919 117.08 577.291 130.465 577.291C144.407 577.291 146.824 576.733 148.497 573.759C151.285 568.182 150.914 568.182 143.478 571.9C133.811 576.733 129.907 576.547 129.907 570.971C129.907 559.073 138.087 552.195 142.734 560.003C143.85 561.862 144.779 562.977 144.779 562.419C144.779 561.862 145.523 558.701 146.638 555.169C148.311 549.221 148.125 549.035 144.965 552.009C143.292 553.682 139.946 554.983 137.901 554.983C134.369 554.983 134.369 554.426 136.042 547.547C137.901 540.669 138.644 540.112 144.221 540.112C148.125 540.112 150.914 541.227 151.657 543.086C152.587 545.503 152.959 545.503 154.26 543.458C157.234 538.81 155.933 538.253 142.548 538.253H128.978L124.702 555.541Z" fill="#990505"/>
<path d="M305.208 548.103C301.49 550.705 299.446 553.308 300.003 554.795C300.561 556.282 300.003 561.488 298.888 566.507C297.587 571.34 297.029 575.987 297.773 576.545C299.446 578.218 308.369 575.616 308.369 573.385C308.369 572.27 307.625 572.084 306.51 572.641C302.048 575.43 307.067 557.398 311.901 553.68C314.132 552.007 314.132 551.449 312.458 551.263C310.785 551.263 310.414 549.962 311.157 547.545C312.644 543.084 312.644 543.084 305.208 548.103Z" fill="#990505"/>
<path d="M176.76 554.055C173.042 558.888 172.856 558.888 170.811 555.17C169.51 552.567 167.093 551.266 163.747 551.452C160.958 551.452 159.657 552.01 160.958 552.382C162.26 552.939 164.119 556.285 165.234 559.817C167.837 567.439 165.42 571.715 158.542 571.715C155.753 571.715 154.08 572.83 154.08 574.503C154.08 578.593 157.798 577.849 162.817 573.202C167.279 568.926 168.952 569.67 171.369 576.176C172.112 578.407 181.965 575.991 181.965 573.574C181.965 572.458 181.035 571.901 179.734 572.087C178.619 572.458 176.388 570.228 174.901 567.253C172.67 562.606 172.67 561.676 175.272 559.074C176.946 557.401 179.734 555.914 181.593 555.914C183.266 555.914 184.753 554.798 184.753 553.311C184.753 548.664 180.663 549.035 176.76 554.055Z" fill="#990505"/>
<path d="M193.859 550.709C191.071 551.266 190.141 552.568 190.699 554.798C191.629 558.516 184.564 584.356 181.59 587.888C180.103 589.747 181.218 590.305 186.052 590.305C192.186 590.305 192.372 589.933 191.629 584.728C190.885 578.965 191.257 578.593 201.109 576.548C210.59 574.318 217.468 556.843 210.962 551.452C208.917 549.779 207.244 549.593 204.455 551.266C201.853 552.568 200.552 552.568 200.552 551.266C200.552 550.337 199.994 549.593 199.25 549.593C198.321 549.779 195.904 550.337 193.859 550.709ZM205.571 562.42C204.455 570.785 201.481 575.433 197.205 575.433C194.975 575.433 194.789 573.946 195.718 567.625C197.205 558.888 199.622 554.984 203.898 554.984C205.943 554.984 206.314 556.657 205.571 562.42Z" fill="#990505"/>
<path d="M242.934 553.127C231.222 562.236 231.594 583.242 243.306 575.435C245.722 573.947 245.722 573.39 243.492 571.902C239.96 569.672 242.19 558.332 247.024 554.056C250.742 550.71 250.742 550.896 250.742 557.031C250.742 560.563 249.44 565.21 247.953 567.255C244.235 572.832 248.139 578.409 254.46 576.364C257.434 575.435 257.992 574.691 256.319 573.576C254.46 572.46 254.646 570.229 257.062 563.165C260.966 551.826 260.78 550.71 256.319 551.826C254.274 552.383 252.043 552.011 251.485 551.082C249.998 548.479 247.953 549.037 242.934 553.127Z" fill="#990505"/>
<path d="M271.562 550.708C269.331 551.08 267.844 552.381 268.402 553.124C268.96 554.054 268.216 559.259 266.543 564.65C263.011 576.919 263.011 577.291 267.473 577.291C269.703 577.291 271.19 575.99 271.19 573.945C271.19 572.272 272.864 567.996 274.908 564.65C277.139 561.118 278.069 558.887 277.139 559.445C276.21 560.003 276.024 557.958 276.396 554.797C276.767 551.823 276.953 549.592 276.581 549.592C276.21 549.778 273.979 550.336 271.562 550.708Z" fill="#990505"/>
<path d="M282.162 553.31C278.63 556.285 278.444 556.842 281.233 556.099C284.021 555.169 284.393 555.541 283.463 559.073C280.489 568.74 279.931 577.291 282.162 577.291C285.694 577.291 291.643 573.573 291.643 571.528C291.643 570.413 290.713 570.227 289.598 570.971C287.925 571.9 287.739 570.785 288.668 566.881C290.899 558.33 290.899 550.708 288.668 549.964C287.553 549.592 284.579 551.08 282.162 553.31Z" fill="#990505"/>
</svg>
